<?xml version="1.0" encoding="utf-8"?>
<!-- Generator: Adobe Illustrator 24.0.1, SVG Export Plug-In . SVG Version: 6.00 Build 0)  -->
<svg version="1.1" id="Capa_1" xmlns="http://www.w3.org/2000/svg" xmlns:xlink="http://www.w3.org/1999/xlink" x="0px" y="0px"
	 viewBox="0 0 612 612" style="enable-background:new 0 0 612 612;" xml:space="preserve">
<style type="text/css">
	.st0{fill:#3D3D3D;}
</style>
<g>
	<g>
		<path class="st0" d="M226.8,375.4c-28.2,0-51.1,22.9-51.1,51.2c0,28.2,22.8,51.1,51.1,51.1s51.1-22.9,51.1-51.1
			C277.8,398.3,255,375.4,226.8,375.4z M226.8,452c-14.1,0-25.5-11.5-25.5-25.5c0-14.1,11.4-25.5,25.5-25.5
			c14.1,0,25.5,11.4,25.5,25.5C252.3,440.6,240.9,452,226.8,452z M612,337.6v54.5c0,13.6-11,24.6-24.6,24.6H561
			c-4.8-32.7-32.9-57.8-66.9-57.8c-33.9,0-62.1,25.1-66.8,57.8H293.6c-4.8-32.7-32.9-57.8-66.8-57.8s-62.1,25.1-66.8,57.8h-33
			c-13.6,0-24.6-11-24.6-24.6v-54.5L612,337.6L612,337.6z M494.1,375.4c-28.2,0-51.2,22.9-51.2,51.2c0,28.2,22.9,51.1,51.2,51.1
			c28.2,0,51.1-22.9,51.1-51.1C545.2,398.3,522.3,375.4,494.1,375.4z M494.1,452c-14.1,0-25.5-11.5-25.5-25.5
			c0-14.1,11.4-25.5,25.5-25.5c14,0,25.5,11.4,25.5,25.5C519.7,440.6,508.2,452,494.1,452z M602.3,282.6l-96.8-95.8
			c-6.2-6.1-14.5-9.5-23.1-9.5h-48.9V159c0-13.6-11-24.6-24.6-24.6h-282c-13.6,0-24.6,11-24.6,24.6v3.9l-100,11.5l177.1,23.1
			L0,215.3l178.8,25.4L0,256.3l102.3,19.3l0,48.4H612v-18C612,297.2,608.5,288.8,602.3,282.6z M560.1,285.8h-93.7
			c-2.1,0-3.9-1.7-3.9-3.9v-72.3c0-2.1,1.7-3.9,3.9-3.9h17.8c1,0,2,0.4,2.7,1.1l75.8,72.3C565.3,281.6,563.5,285.8,560.1,285.8z"/>
	</g>
</g>
</svg>
