<?xml version="1.0" encoding="utf-8"?>
<!-- Generator: Adobe Illustrator 24.0.1, SVG Export Plug-In . SVG Version: 6.00 Build 0)  -->
<svg version="1.1" id="Capa_1" xmlns="http://www.w3.org/2000/svg" xmlns:xlink="http://www.w3.org/1999/xlink" x="0px" y="0px"
	 viewBox="0 0 297 297" style="enable-background:new 0 0 297 297;" xml:space="preserve">
<style type="text/css">
	.st0{fill:#FF5C8F;}
</style>
<g>
	<path class="st0" d="M148.5,0C87.4,0,37.7,49.7,37.7,110.8c0,91,99.7,179.9,104,183.6c1.9,1.7,4.4,2.6,6.8,2.6
		c2.4,0,4.8-0.9,6.8-2.6c4.2-3.7,104-92.6,104-183.6C259.3,49.7,209.6,0,148.5,0z M148.5,272.7c-22-21.4-90.2-93-90.2-161.9
		c0-49.8,40.5-90.3,90.2-90.3s90.2,40.5,90.2,90.3C238.7,179.7,170.5,251.3,148.5,272.7z"/>
	<path class="st0" d="M148.5,59.2c-28.3,0-51.3,23.2-51.3,51.6c0,28.5,23,51.6,51.3,51.6s51.3-23.2,51.3-51.6
		C199.8,82.3,176.8,59.2,148.5,59.2z M148.5,141.9c-17,0-30.8-14-30.8-31.1c0-17.2,13.8-31.1,30.8-31.1s30.8,14,30.8,31.1
		S165.5,141.9,148.5,141.9z"/>
</g>
</svg>
