<?xml version="1.0" encoding="utf-8"?>
<!-- Generator: Adobe Illustrator 24.0.1, SVG Export Plug-In . SVG Version: 6.00 Build 0)  -->
<svg version="1.1"
	 id="Camada_1" xmlns:cc="http://creativecommons.org/ns#" xmlns:dc="http://purl.org/dc/elements/1.1/" xmlns:rdf="http://www.w3.org/1999/02/22-rdf-syntax-ns#"
	 xmlns="http://www.w3.org/2000/svg" xmlns:xlink="http://www.w3.org/1999/xlink" x="0px" y="0px" viewBox="0 0 24 24"
	 style="enable-background:new 0 0 24 24;" xml:space="preserve">
<style type="text/css">
	.st0{fill:#ADADAD;}
	.st1{fill:#FFFFFF;}
	.st2{display:none;fill:#ADADAD;}
	.st3{fill:#F484DC;}
</style>
<g transform="translate(0 -1028.4)">
	<path class="st0" d="M22,1041.4c0,5.5-4.5,10-10,10s-10-4.5-10-10s4.5-10,10-10S22,1035.9,22,1041.4z"/>
	<path class="st1" d="M22,1040.4c0,5.5-4.5,10-10,10s-10-4.5-10-10s4.5-10,10-10S22,1034.9,22,1040.4z"/>
	<g>
		<path class="st2" d="M16,1037.4l-6,6l-2.5-2.5l-2.1,2.1l2.5,2.5l2,2l0.1,0.1l8.1-8.1L16,1037.4z"/>
	</g>
	<g>
		<path class="st3" d="M16,1036.4l-6,6l-2.5-2.5l-2.1,2.1l2.5,2.5l2,2l0.1,0.1l8.1-8.1L16,1036.4z"/>
		<path class="st1" d="M10,1047.3l-0.5-0.4l-4.9-4.9l2.8-2.8l2.5,2.5l6-6l2.8,2.8L10,1047.3z M6.1,1042l3.9,3.9l7.4-7.4l-1.4-1.4
			l-6,6l-2.5-2.5L6.1,1042z"/>
	</g>
</g>
</svg>
